<svg width="64" height="64" viewBox="0 0 64 64" fill="none" xmlns="http://www.w3.org/2000/svg">
<path d="M56.87 37.5C56.8047 37.3854 56.7173 37.2849 56.613 37.2042C56.5086 37.1235 56.3893 37.0643 56.262 37.0299C56.1347 36.9955 56.0018 36.9866 55.871 37.0038C55.7402 37.021 55.6141 37.0639 55.5 37.13L18.89 58.07C17.6418 58.7962 16.2619 59.2673 14.8303 59.4562C13.3986 59.645 11.9438 59.5477 10.55 59.17C9.21385 58.8113 7.95587 58.2078 6.83999 57.39C8.81985 57.9415 10.8901 58.0912 12.9287 57.8301C14.9673 57.5691 16.933 56.9026 18.71 55.87L27.42 50.87L36.08 45.87L47.34 39.37C47.4537 39.3038 47.5533 39.2159 47.633 39.1112C47.7127 39.0064 47.7709 38.887 47.8044 38.7597C47.8378 38.6325 47.8458 38.4998 47.8279 38.3695C47.81 38.2391 47.7665 38.1135 47.7 38C47.5664 37.773 47.3486 37.6078 47.094 37.5404C46.8394 37.473 46.5684 37.5088 46.34 37.64L27.43 48.52C27.3171 47.912 27.3949 47.284 27.6527 46.7219C27.9105 46.1599 28.3356 45.6912 28.87 45.38L40.49 38.87C40.6042 38.8043 40.7044 38.7168 40.7849 38.6124C40.8653 38.5081 40.9244 38.3889 40.9587 38.2616C40.9931 38.1344 41.002 38.0017 40.9851 37.871C40.9682 37.7403 40.9257 37.6143 40.86 37.5C40.7943 37.3858 40.7068 37.2856 40.6024 37.2051C40.498 37.1247 40.3788 37.0656 40.2516 37.0313C40.1244 36.9969 39.9917 36.9879 39.861 37.0049C39.7303 37.0218 39.6042 37.0643 39.49 37.13L33.81 40.31L28.19 35.79L29.58 32.79L38.33 33.55L38.24 34.55C38.2178 34.8138 38.3012 35.0756 38.4718 35.2781C38.6423 35.4806 38.8862 35.6071 39.15 35.63H39.24C39.4919 35.6308 39.7349 35.5365 39.9203 35.3659C40.1057 35.1954 40.2198 34.9611 40.24 34.71L40.33 33.71L41.33 33.79H41.42C41.6703 33.791 41.9119 33.6981 42.0971 33.5296C42.2822 33.3611 42.3975 33.1293 42.42 32.88C42.4324 32.7486 42.4186 32.616 42.3795 32.4899C42.3403 32.3639 42.2766 32.2468 42.192 32.1455C42.1074 32.0441 42.0036 31.9605 41.8866 31.8995C41.7695 31.8385 41.6415 31.8013 41.51 31.79L40.51 31.71L40.59 30.71C40.6139 30.4448 40.5314 30.181 40.3607 29.9765C40.1901 29.7721 39.9452 29.6439 39.68 29.62C39.4148 29.5961 39.1509 29.6786 38.9465 29.8493C38.7421 30.0199 38.6139 30.2648 38.59 30.53L38.5 31.53L30.45 30.83L30.58 30.55C30.9093 29.8299 31.0629 29.0419 31.0281 28.2509C30.9934 27.4599 30.7712 26.6884 30.38 26L27.31 20.67C27.1774 20.4393 26.9585 20.2707 26.7016 20.2013C26.4447 20.1319 26.1707 20.1674 25.94 20.3C25.7093 20.4326 25.5406 20.6515 25.4713 20.9084C25.4019 21.1653 25.4374 21.4393 25.57 21.67L26.63 23.51L22.36 26.1L21.75 25L23 21.35C23.0621 21.1076 23.0311 20.8507 22.9131 20.6301C22.7951 20.4094 22.5986 20.2411 22.3626 20.1582C22.1265 20.0753 21.8679 20.0839 21.6378 20.1824C21.4078 20.2808 21.223 20.462 21.12 20.69L18.05 29.39C17.9707 29.6132 17.8148 29.801 17.61 29.92C17.4423 30.0227 17.2458 30.0683 17.05 30.05L9.84999 29.59C9.60085 29.5529 9.37491 29.4231 9.21732 29.2265C9.05974 29.03 8.98212 28.7813 8.99999 28.53C9.00351 28.3973 9.03573 28.2669 9.09442 28.1478C9.15311 28.0287 9.23688 27.9237 9.33999 27.84C9.53758 27.6649 9.7964 27.575 10.06 27.59L15.7 28C15.9168 28.0121 16.1317 27.9532 16.3121 27.8323C16.4925 27.7114 16.6287 27.5351 16.7 27.33L19.27 20C19.3565 19.7507 19.3409 19.4772 19.2266 19.2393C19.1124 19.0014 18.9087 18.8184 18.66 18.73C18.4997 18.6852 18.3303 18.6852 18.17 18.73C18.0342 18.296 18.0504 17.8287 18.2158 17.4052C18.3812 16.9816 18.686 16.6271 19.08 16.4L19.94 15.9C20.1677 15.7674 20.4193 15.681 20.6805 15.6459C20.9416 15.6108 21.2071 15.6277 21.4617 15.6955C21.7163 15.7633 21.955 15.8808 22.1641 16.0412C22.3732 16.2016 22.5485 16.4017 22.68 16.63L23.83 18.63C23.9684 18.8477 24.1855 19.0035 24.436 19.0648C24.6865 19.1262 24.9511 19.0884 25.1744 18.9593C25.3977 18.8302 25.5624 18.6199 25.6343 18.3722C25.7062 18.1244 25.6795 17.8585 25.56 17.63L24.41 15.63C24.1137 15.1254 23.7103 14.6919 23.2282 14.3601C22.7462 14.0284 22.1972 13.8065 21.62 13.71C21.9111 13.0053 22.0372 12.2434 21.9887 11.4826C21.9402 10.7217 21.7183 9.98197 21.34 9.32L21.77 9.07C21.9987 8.93809 22.166 8.72106 22.2353 8.46627C22.3046 8.21148 22.2704 7.93962 22.14 7.71001C22.0747 7.59542 21.9873 7.49489 21.883 7.4142C21.7786 7.33352 21.6593 7.27427 21.532 7.23988C21.4047 7.20549 21.2718 7.19663 21.141 7.21382C21.0102 7.231 20.8841 7.27389 20.77 7.34001L20.34 7.59001C19.7649 6.58721 18.855 5.81895 17.77 5.42001C17.87 4.76094 17.7431 4.08745 17.41 3.51C17.213 3.16857 16.9507 2.86927 16.6381 2.62921C16.3254 2.38914 15.9685 2.21301 15.5878 2.11087C14.8189 1.90458 13.9996 2.01218 13.31 2.41001C12.6204 2.80783 12.1171 3.46329 11.9109 4.23219C11.7046 5.00109 11.8122 5.82044 12.21 6.51001C12.21 6.59001 12.32 6.64001 12.37 6.71001C11.8779 7.22966 11.5056 7.8508 11.2793 8.52976C11.0529 9.20872 10.9781 9.92902 11.06 10.64L10.25 11.11C9.79153 11.3756 9.45716 11.8122 9.3203 12.324C9.18343 12.8358 9.25525 13.3811 9.51999 13.84L10.52 15.57C10.6479 15.7991 10.8211 15.9998 11.0292 16.1597C11.2372 16.3196 11.4757 16.4354 11.73 16.5C11.8991 16.5478 12.0742 16.5714 12.25 16.57C12.6013 16.5694 12.9462 16.4763 13.25 16.3L14.07 15.83C14.7403 16.3239 15.5246 16.6404 16.35 16.75C16.2979 16.8632 16.2545 16.9802 16.22 17.1C15.9522 18.1125 16.0923 19.1896 16.61 20.1L16.92 20.64L15.08 25.89L10.15 25.57C9.36279 25.541 8.59407 25.8127 7.99999 26.33C7.55324 26.7217 7.23283 27.2371 7.0794 27.8111C6.92596 28.3851 6.9464 28.9917 7.13813 29.554C7.32986 30.1163 7.68424 30.6091 8.15635 30.9698C8.62846 31.3305 9.19703 31.5428 9.78999 31.58L16.99 32.05H17.18C17.6018 32.0435 18.0175 31.9481 18.4 31.77L21.21 32.01L20.33 35.29C20.0321 36.4052 20.1293 37.5892 20.6051 38.6409C21.0808 39.6926 21.9058 40.5473 22.94 41.06L28 43.58L27.88 43.64C26.8832 44.2165 26.1159 45.1194 25.7078 46.1962C25.2997 47.273 25.2757 48.4576 25.64 49.55L17.71 54.13C15.5462 55.3899 13.0727 56.0184 10.57 55.9442C8.06719 55.8699 5.63529 55.096 3.54999 53.71C3.36557 53.5977 3.14977 53.5482 2.93485 53.5687C2.71992 53.5893 2.51742 53.6788 2.35762 53.824C2.19781 53.9692 2.08928 54.1622 2.04825 54.3742C2.00722 54.5861 2.0359 54.8057 2.12999 55C2.98012 56.4822 4.11409 57.7822 5.46706 58.8258C6.82003 59.8693 8.36544 60.6359 10.0149 61.0817C11.6644 61.5275 13.3856 61.6438 15.08 61.4239C16.7745 61.2039 18.409 60.6521 19.89 59.8L56.5 38.87C56.6146 38.8047 56.7151 38.7173 56.7958 38.613C56.8765 38.5086 56.9357 38.3893 56.9701 38.262C57.0045 38.1347 57.0134 38.0018 56.9962 37.871C56.979 37.7402 56.9361 37.6141 56.87 37.5V37.5ZM19.61 10.31C19.8072 10.6514 19.9352 11.0283 19.9866 11.4192C20.0381 11.81 20.012 12.2072 19.9098 12.588C19.8076 12.9688 19.6314 13.3257 19.3912 13.6383C19.151 13.951 18.8516 14.2132 18.51 14.41V14.41C18.0891 14.6499 17.6164 14.7843 17.1323 14.8017C16.6482 14.8191 16.167 14.719 15.73 14.51C15.8964 14.212 15.9837 13.8763 15.9837 13.535C15.9837 13.1937 15.8964 12.858 15.73 12.56V12.56L19.63 10.31H19.61ZM18.61 8.58001L14.71 10.83C14.4454 10.3723 14.0104 10.0379 13.5 9.9C13.3369 9.85693 13.1686 9.83674 13 9.84001C13.0271 9.45729 13.1294 9.08366 13.301 8.74049C13.4725 8.39732 13.7101 8.09133 14 7.84001C14.2669 7.91549 14.5426 7.95583 14.82 7.96001C15.343 7.95884 15.8567 7.82095 16.31 7.56001C16.4938 7.45298 16.6649 7.3255 16.82 7.18001C17.1966 7.2824 17.5489 7.45899 17.8562 7.6994C18.1636 7.93981 18.4199 8.23921 18.61 8.58001V8.58001ZM14.31 4.13001C14.4818 4.0291 14.6798 3.9818 14.8786 3.99416C15.0774 4.00653 15.268 4.078 15.426 4.19941C15.5839 4.32082 15.702 4.48664 15.7651 4.6756C15.8281 4.86457 15.8333 5.06807 15.78 5.26001C15.7459 5.3877 15.6867 5.50736 15.6061 5.61206C15.5254 5.71676 15.4248 5.80444 15.31 5.87C15.0793 6.00261 14.8053 6.03813 14.5484 5.96874C14.2914 5.89935 14.0726 5.73074 13.94 5.50001C13.8074 5.26927 13.7719 4.9953 13.8413 4.73838C13.9106 4.48145 14.0793 4.26261 14.31 4.13001V4.13001ZM12.25 14.56L11.25 12.83L12.98 11.83L13.48 12.69L13.98 13.55L12.25 14.56ZM27.63 25.21L28.63 26.97C28.868 27.3835 29.0039 27.8477 29.0265 28.3243C29.0491 28.8008 28.9577 29.2759 28.76 29.71L28.34 30.63L23.71 30.23L23.93 29.41C23.9641 29.283 23.9729 29.1505 23.9557 29.02C23.9385 28.8896 23.8958 28.7639 23.83 28.65L23.34 27.8L27.63 25.21ZM20 29.9L20.85 27.51L21.85 29.29L21.64 30.05L20 29.9ZM22.2 35.8L23.2 32.19L27.48 32.56L26.07 35.67C25.9785 35.8714 25.9563 36.0974 26.007 36.3128C26.0576 36.5281 26.1783 36.7206 26.35 36.86L31.9 41.32L30.08 42.32L23.8 39.22C23.1874 38.9146 22.6977 38.4089 22.4121 37.7868C22.1265 37.1647 22.0622 36.4636 22.23 35.8H22.2Z" fill="#ffc800" id="id_125"></path>
<path d="M55 21C55.0007 20.8241 54.955 20.6512 54.8675 20.4986C54.78 20.346 54.6538 20.2192 54.5017 20.131C54.3496 20.0428 54.1768 19.9962 54.001 19.996C53.8251 19.9959 53.6523 20.0421 53.5 20.13L46.57 24.13C46.4562 24.1962 46.3566 24.2841 46.277 24.3889C46.1973 24.4936 46.139 24.613 46.1056 24.7403C46.0721 24.8676 46.0641 25.0002 46.0821 25.1306C46.1 25.2609 46.1434 25.3865 46.21 25.5C46.3419 25.7287 46.5589 25.896 46.8137 25.9653C47.0685 26.0347 47.3404 26.0004 47.57 25.87L54.5 21.87C54.6526 21.7819 54.7792 21.655 54.867 21.5023C54.9548 21.3495 55.0007 21.1762 55 21Z" fill="#ffc800" id="id_126"></path>
<path d="M50.5 14.13L43.57 18.13C43.3773 18.2392 43.2264 18.4092 43.1408 18.6134C43.0551 18.8176 43.0397 19.0444 43.0969 19.2583C43.1541 19.4722 43.2807 19.6611 43.4568 19.7953C43.6329 19.9296 43.8486 20.0015 44.07 20C44.2452 20.0012 44.4176 19.9564 44.57 19.87L51.5 15.87C51.7307 15.7374 51.8993 15.5186 51.9687 15.2616C52.0381 15.0047 52.0026 14.7307 51.87 14.5C51.7374 14.2693 51.5185 14.1007 51.2616 14.0313C51.0047 13.9619 50.7307 13.9974 50.5 14.13V14.13Z" fill="#ffc905" id="id_127"></path>
<path d="M29.93 16.7C29.9953 16.8146 30.0827 16.9151 30.187 16.9958C30.2914 17.0765 30.4107 17.1358 30.538 17.1701C30.6653 17.2045 30.7982 17.2134 30.929 17.1962C31.0598 17.179 31.1859 17.1361 31.3 17.07L45.5 8.87003C45.6142 8.80436 45.7144 8.71684 45.7949 8.61246C45.8753 8.50808 45.9344 8.38887 45.9687 8.26166C46.0031 8.13444 46.0121 8.0017 45.9951 7.87102C45.9782 7.74034 45.9357 7.61428 45.87 7.50003C45.8043 7.38578 45.7168 7.28558 45.6124 7.20515C45.508 7.12473 45.3888 7.06565 45.2616 7.03129C45.1344 6.99693 45.0017 6.98797 44.871 7.00491C44.7403 7.02185 44.6142 7.06437 44.5 7.13003L30.3 15.33C30.1854 15.3954 30.0849 15.4827 30.0042 15.5871C29.9235 15.6914 29.8643 15.8107 29.8299 15.938C29.7955 16.0654 29.7866 16.1982 29.8038 16.329C29.821 16.4598 29.8639 16.5859 29.93 16.7V16.7Z" fill="#fac400" id="id_128"></path>
<path d="M61.87 2.50001C61.8046 2.38542 61.7173 2.28489 61.6129 2.20421C61.5086 2.12352 61.3893 2.06428 61.262 2.02989C61.1346 1.9955 61.0018 1.98664 60.871 2.00382C60.7402 2.02101 60.6141 2.06389 60.5 2.13001L50.82 7.72001C50.5892 7.85262 50.4206 8.07146 50.3512 8.32838C50.2819 8.58531 50.3174 8.85927 50.45 9.09001C50.5826 9.32075 50.8014 9.48936 51.0583 9.55875C51.3153 9.62813 51.5892 9.59262 51.82 9.46001L61.5 3.87001C61.6146 3.80468 61.7151 3.71733 61.7958 3.61298C61.8765 3.50863 61.9357 3.38935 61.9701 3.26201C62.0045 3.13467 62.0133 3.00179 61.9962 2.87101C61.979 2.74023 61.9361 2.61414 61.87 2.50001V2.50001Z" fill="#ffc800" id="id_129"></path>
<path d="M51.5 29.13L45 32.9C44.8862 32.9662 44.7866 33.0542 44.707 33.1589C44.6273 33.2636 44.569 33.383 44.5356 33.5103C44.5021 33.6376 44.4941 33.7702 44.5121 33.9006C44.53 34.0309 44.5734 34.1565 44.64 34.27C44.7281 34.4226 44.8549 34.5492 45.0077 34.637C45.1605 34.7248 45.3338 34.7707 45.51 34.77C45.6827 34.7665 45.8515 34.7182 46 34.63L52.53 30.87C52.6442 30.8044 52.7444 30.7168 52.8248 30.6125C52.9053 30.5081 52.9643 30.3889 52.9987 30.2617C53.0331 30.1344 53.042 30.0017 53.0251 29.871C53.0081 29.7403 52.9656 29.6143 52.9 29.5C52.8343 29.3858 52.7468 29.2856 52.6424 29.2052C52.538 29.1247 52.4188 29.0656 52.2916 29.0313C52.1644 28.9969 52.0316 28.988 51.901 29.0049C51.7703 29.0219 51.6442 29.0644 51.53 29.13H51.5Z" fill="#fcc500" id="id_130"></path>
<path d="M38.5 16.13L34.63 18.37C34.4373 18.4792 34.2864 18.6492 34.2008 18.8534C34.1151 19.0576 34.0997 19.2844 34.1569 19.4983C34.2141 19.7122 34.3407 19.9011 34.5168 20.0353C34.6929 20.1696 34.9086 20.2415 35.13 20.24C35.3061 20.2382 35.4785 20.1899 35.63 20.1L39.5 17.87C39.6142 17.8043 39.7144 17.7168 39.7949 17.6124C39.8753 17.508 39.9344 17.3888 39.9687 17.2616C40.0031 17.1344 40.012 17.0017 39.9951 16.871C39.9782 16.7403 39.9356 16.6142 39.87 16.5C39.8043 16.3857 39.7168 16.2855 39.6124 16.2051C39.508 16.1247 39.3888 16.0656 39.2616 16.0313C39.1344 15.9969 39.0017 15.9879 38.871 16.0049C38.7403 16.0218 38.6142 16.0643 38.5 16.13Z" fill="#fac400" id="id_131"></path>
<path d="M26.15 11.53C26.2153 11.6446 26.3027 11.7451 26.407 11.8258C26.5113 11.9065 26.6306 11.9657 26.758 12.0001C26.8853 12.0345 27.0182 12.0434 27.149 12.0262C27.2797 12.009 27.4058 11.9661 27.52 11.9L34.52 7.9C34.7507 7.76739 34.9193 7.54855 34.9887 7.29163C35.0581 7.0347 35.0226 6.76074 34.89 6.53C34.7574 6.29926 34.5385 6.13065 34.2816 6.06126C34.0247 5.99187 33.7507 6.02739 33.52 6.16L26.52 10.16C26.4054 10.2253 26.3049 10.3127 26.2242 10.417C26.1435 10.5214 26.0842 10.6407 26.0498 10.768C26.0155 10.8953 26.0066 11.0282 26.0238 11.159C26.041 11.2898 26.0838 11.4159 26.15 11.53V11.53Z" fill="#fcc500" id="id_132"></path>
<path d="M24.88 6.8C25.0551 6.80121 25.2276 6.75638 25.38 6.67L28.5 4.87C28.7307 4.73739 28.8993 4.51855 28.9687 4.26163C29.0381 4.0047 29.0026 3.73074 28.87 3.5C28.7374 3.26926 28.5185 3.10065 28.2616 3.03126C28.0047 2.96187 27.7307 2.99739 27.5 3.13L24.38 4.94C24.1495 5.07024 23.9801 5.28653 23.9089 5.54146C23.8377 5.7964 23.8704 6.06917 24 6.3C24.0889 6.45409 24.2174 6.58166 24.372 6.66955C24.5267 6.75744 24.7021 6.80247 24.88 6.8V6.8Z" fill="#fac400" id="id_133"></path>
<path d="M46.5 50.13L39.9 53.94C39.7862 54.0062 39.6867 54.0942 39.607 54.1989C39.5273 54.3036 39.469 54.423 39.4356 54.5503C39.4022 54.6776 39.3942 54.8102 39.4121 54.9406C39.43 55.0709 39.4735 55.1965 39.54 55.31C39.6281 55.4626 39.755 55.5892 39.9077 55.677C40.0605 55.7649 40.2338 55.8107 40.41 55.81C40.5836 55.8133 40.7543 55.7646 40.9 55.67L47.5 51.87C47.6142 51.8044 47.7144 51.7168 47.7949 51.6125C47.8753 51.5081 47.9344 51.3889 47.9687 51.2617C48.0031 51.1344 48.0121 51.0017 47.9951 50.871C47.9782 50.7403 47.9357 50.6143 47.87 50.5C47.8043 50.3858 47.7168 50.2856 47.6124 50.2051C47.508 50.1247 47.3888 50.0656 47.2616 50.0313C47.1344 49.9969 47.0017 49.988 46.871 50.0049C46.7403 50.0218 46.6142 50.0644 46.5 50.13V50.13Z" fill="#ffc905" id="id_134"></path>
<path d="M56.5 52.13L51.5 55.05C51.3073 55.1592 51.1564 55.3292 51.0708 55.5334C50.9851 55.7376 50.9697 55.9644 51.0269 56.1784C51.0841 56.3923 51.2107 56.5811 51.3868 56.7154C51.5629 56.8496 51.7786 56.9216 52 56.92C52.1761 56.9182 52.3485 56.8699 52.5 56.78L57.5 53.87C57.6142 53.8044 57.7144 53.7168 57.7948 53.6125C57.8753 53.5081 57.9343 53.3889 57.9687 53.2617C58.0031 53.1344 58.012 53.0017 57.9951 52.871C57.9781 52.7403 57.9356 52.6143 57.87 52.5C57.8043 52.3858 57.7168 52.2856 57.6124 52.2051C57.508 52.1247 57.3888 52.0656 57.2616 52.0313C57.1344 51.9969 57.0016 51.988 56.871 52.0049C56.7403 52.0218 56.6142 52.0644 56.5 52.13V52.13Z" fill="#fcc605" id="id_135"></path>
<path d="M51.88 47.8C52.0551 47.8012 52.2276 47.7564 52.38 47.67L55.5 45.87C55.6142 45.8044 55.7144 45.7168 55.7948 45.6125C55.8753 45.5081 55.9343 45.3889 55.9687 45.2617C56.0031 45.1344 56.012 45.0017 55.9951 44.871C55.9781 44.7403 55.9356 44.6143 55.87 44.5C55.8043 44.3858 55.7168 44.2856 55.6124 44.2051C55.508 44.1247 55.3888 44.0656 55.2616 44.0313C55.1344 43.9969 55.0016 43.988 54.871 44.0049C54.7403 44.0218 54.6142 44.0644 54.5 44.13L51.38 45.94C51.1495 46.0703 50.9801 46.2866 50.9089 46.5415C50.8377 46.7964 50.8704 47.0692 51 47.3C51.0889 47.4541 51.2173 47.5817 51.372 47.6696C51.5267 47.7575 51.7021 47.8025 51.88 47.8Z" fill="#fac400" id="id_136"></path>
</svg>